<svg width="1920" height="1080" viewBox="0 0 1920 1080" fill="none" xmlns="http://www.w3.org/2000/svg">
<g clip-path="url(#clip0_42_20)">
<rect width="1920" height="1080" fill="#0A0A0A"/>
<g opacity="0.4" filter="url(#filter0_f_42_20)">
<path fill-rule="evenodd" clip-rule="evenodd" d="M2132.5 577.093C2132.5 545.756 2096.1 532.917 2069.06 548.755C1865.99 667.704 1559.39 743.468 1216.36 743.468C604.913 743.468 109.241 502.759 109.241 205.829C109.241 132.676 75.017 63.6273 32.5755 1.10061C11.2627 -30.2984 -30.8707 -39.3974 -63.1193 -19.3933C-207.146 69.9483 -293 182.47 -293 304.729C-293 595.363 192.162 830.968 790.64 830.968C850.499 830.968 911.808 831.335 973.678 831.706C1530.39 835.046 2132.5 838.657 2132.5 577.093V577.093Z" fill="url(#paint0_linear_42_20)"/>
</g>
</g>
<defs>
<filter id="filter0_f_42_20" x="-554" y="-291" width="2947.5" height="1384.47" filterUnits="userSpaceOnUse" color-interpolation-filters="sRGB">
<feFlood flood-opacity="0" result="BackgroundImageFix"/>
<feBlend mode="normal" in="SourceGraphic" in2="BackgroundImageFix" result="shape"/>
<feGaussianBlur stdDeviation="130.5" result="effect1_foregroundBlur_42_20"/>
</filter>
<linearGradient id="paint0_linear_42_20" x1="-429.22" y1="240.852" x2="2210.24" y2="1061.29" gradientUnits="userSpaceOnUse">
<stop stop-color="#B46AFF"/>
<stop offset="1" stop-color="#FF5353"/>
</linearGradient>
<clipPath id="clip0_42_20">
<rect width="1920" height="1080" fill="white"/>
</clipPath>
</defs>
</svg>
